<mxfile host="Electron" agent="Mozilla/5.0 (Windows NT 10.0; Win64; x64) AppleWebKit/537.36 (KHTML, like Gecko) draw.io/24.7.5 Chrome/126.0.6478.183 Electron/31.3.0 Safari/537.36" version="24.7.5" pages="2">
  <diagram name="Website" id="2c0d36ab-eaac-3732-788b-9136903baeff">
    <mxGraphModel dx="3137" dy="2343" grid="1" gridSize="10" guides="1" tooltips="1" connect="1" arrows="1" fold="1" page="1" pageScale="1.5" pageWidth="1169" pageHeight="827" background="none" math="0" shadow="0">
      <root>
        <mxCell id="0" />
        <mxCell id="1" parent="0" />
        <mxCell id="ujWKn-uQMi2DjapFLPFJ-124" value="" style="edgeStyle=orthogonalEdgeStyle;rounded=0;orthogonalLoop=1;jettySize=auto;html=1;exitX=0.5;exitY=1;exitDx=0;exitDy=0;" edge="1" parent="1" source="2" target="ujWKn-uQMi2DjapFLPFJ-123">
          <mxGeometry relative="1" as="geometry" />
        </mxCell>
        <mxCell id="ujWKn-uQMi2DjapFLPFJ-133" value="" style="edgeStyle=orthogonalEdgeStyle;rounded=0;orthogonalLoop=1;jettySize=auto;html=1;exitX=0.5;exitY=1;exitDx=0;exitDy=0;" edge="1" parent="1" source="2" target="ujWKn-uQMi2DjapFLPFJ-132">
          <mxGeometry relative="1" as="geometry" />
        </mxCell>
        <mxCell id="ujWKn-uQMi2DjapFLPFJ-151" value="" style="edgeStyle=orthogonalEdgeStyle;rounded=0;orthogonalLoop=1;jettySize=auto;html=1;exitX=0.5;exitY=1;exitDx=0;exitDy=0;" edge="1" parent="1" source="2" target="ujWKn-uQMi2DjapFLPFJ-150">
          <mxGeometry relative="1" as="geometry" />
        </mxCell>
        <mxCell id="ujWKn-uQMi2DjapFLPFJ-165" value="" style="edgeStyle=orthogonalEdgeStyle;rounded=0;orthogonalLoop=1;jettySize=auto;html=1;exitX=0.5;exitY=1;exitDx=0;exitDy=0;" edge="1" parent="1" source="2" target="ujWKn-uQMi2DjapFLPFJ-164">
          <mxGeometry relative="1" as="geometry" />
        </mxCell>
        <mxCell id="ujWKn-uQMi2DjapFLPFJ-195" value="" style="edgeStyle=orthogonalEdgeStyle;rounded=0;orthogonalLoop=1;jettySize=auto;html=1;exitX=0.5;exitY=1;exitDx=0;exitDy=0;" edge="1" parent="1" source="2" target="ujWKn-uQMi2DjapFLPFJ-194">
          <mxGeometry relative="1" as="geometry" />
        </mxCell>
        <mxCell id="ujWKn-uQMi2DjapFLPFJ-219" value="" style="edgeStyle=orthogonalEdgeStyle;rounded=0;orthogonalLoop=1;jettySize=auto;html=1;exitX=0.5;exitY=1;exitDx=0;exitDy=0;" edge="1" parent="1" source="2" target="ujWKn-uQMi2DjapFLPFJ-218">
          <mxGeometry relative="1" as="geometry" />
        </mxCell>
        <mxCell id="ujWKn-uQMi2DjapFLPFJ-273" value="" style="edgeStyle=orthogonalEdgeStyle;rounded=0;orthogonalLoop=1;jettySize=auto;html=1;exitX=0.5;exitY=1;exitDx=0;exitDy=0;" edge="1" parent="1" source="2" target="ujWKn-uQMi2DjapFLPFJ-272">
          <mxGeometry relative="1" as="geometry" />
        </mxCell>
        <mxCell id="2" value="Website" style="rounded=1;fillColor=#dae8fc;strokeColor=#6c8ebf;fontStyle=1;fontFamily=Tahoma;fontSize=14;whiteSpace=wrap;" parent="1" vertex="1">
          <mxGeometry x="1750" y="170" width="190" height="80" as="geometry" />
        </mxCell>
        <mxCell id="ujWKn-uQMi2DjapFLPFJ-126" value="" style="edgeStyle=orthogonalEdgeStyle;rounded=0;orthogonalLoop=1;jettySize=auto;html=1;entryX=0;entryY=0.5;entryDx=0;entryDy=0;" edge="1" parent="1" source="ujWKn-uQMi2DjapFLPFJ-123" target="ujWKn-uQMi2DjapFLPFJ-125">
          <mxGeometry relative="1" as="geometry" />
        </mxCell>
        <mxCell id="ujWKn-uQMi2DjapFLPFJ-128" value="" style="edgeStyle=orthogonalEdgeStyle;rounded=0;orthogonalLoop=1;jettySize=auto;html=1;entryX=0;entryY=0.5;entryDx=0;entryDy=0;" edge="1" parent="1" source="ujWKn-uQMi2DjapFLPFJ-123" target="ujWKn-uQMi2DjapFLPFJ-127">
          <mxGeometry relative="1" as="geometry" />
        </mxCell>
        <mxCell id="ujWKn-uQMi2DjapFLPFJ-130" value="" style="edgeStyle=orthogonalEdgeStyle;rounded=0;orthogonalLoop=1;jettySize=auto;html=1;entryX=0;entryY=0.5;entryDx=0;entryDy=0;" edge="1" parent="1" source="ujWKn-uQMi2DjapFLPFJ-123" target="ujWKn-uQMi2DjapFLPFJ-129">
          <mxGeometry relative="1" as="geometry" />
        </mxCell>
        <mxCell id="ujWKn-uQMi2DjapFLPFJ-123" value="Authentication" style="rounded=1;fillColor=#f8cecc;strokeColor=#b85450;fontStyle=1;fontFamily=Tahoma;fontSize=14;whiteSpace=wrap;" vertex="1" parent="1">
          <mxGeometry x="250" y="300" width="190" height="80" as="geometry" />
        </mxCell>
        <mxCell id="ujWKn-uQMi2DjapFLPFJ-125" value="Login" style="rounded=1;fillColor=#d5e8d4;strokeColor=#82b366;fontStyle=1;fontFamily=Tahoma;fontSize=14;whiteSpace=wrap;" vertex="1" parent="1">
          <mxGeometry x="390" y="400" width="190" height="80" as="geometry" />
        </mxCell>
        <mxCell id="ujWKn-uQMi2DjapFLPFJ-127" value="Register" style="rounded=1;fillColor=#d5e8d4;strokeColor=#82b366;fontStyle=1;fontFamily=Tahoma;fontSize=14;whiteSpace=wrap;" vertex="1" parent="1">
          <mxGeometry x="390" y="500" width="190" height="80" as="geometry" />
        </mxCell>
        <mxCell id="ujWKn-uQMi2DjapFLPFJ-129" value="Forget Password" style="rounded=1;fillColor=#d5e8d4;strokeColor=#82b366;fontStyle=1;fontFamily=Tahoma;fontSize=14;whiteSpace=wrap;" vertex="1" parent="1">
          <mxGeometry x="390" y="600" width="190" height="80" as="geometry" />
        </mxCell>
        <mxCell id="ujWKn-uQMi2DjapFLPFJ-135" value="" style="edgeStyle=orthogonalEdgeStyle;rounded=0;orthogonalLoop=1;jettySize=auto;html=1;" edge="1" parent="1" source="ujWKn-uQMi2DjapFLPFJ-132" target="ujWKn-uQMi2DjapFLPFJ-134">
          <mxGeometry relative="1" as="geometry">
            <Array as="points">
              <mxPoint x="695" y="440" />
            </Array>
          </mxGeometry>
        </mxCell>
        <mxCell id="ujWKn-uQMi2DjapFLPFJ-143" value="" style="edgeStyle=orthogonalEdgeStyle;rounded=0;orthogonalLoop=1;jettySize=auto;html=1;entryX=0;entryY=0.5;entryDx=0;entryDy=0;" edge="1" parent="1" source="ujWKn-uQMi2DjapFLPFJ-132" target="ujWKn-uQMi2DjapFLPFJ-142">
          <mxGeometry relative="1" as="geometry" />
        </mxCell>
        <mxCell id="ujWKn-uQMi2DjapFLPFJ-145" value="" style="edgeStyle=orthogonalEdgeStyle;rounded=0;orthogonalLoop=1;jettySize=auto;html=1;entryX=0;entryY=0.5;entryDx=0;entryDy=0;" edge="1" parent="1" source="ujWKn-uQMi2DjapFLPFJ-132" target="ujWKn-uQMi2DjapFLPFJ-144">
          <mxGeometry relative="1" as="geometry" />
        </mxCell>
        <mxCell id="ujWKn-uQMi2DjapFLPFJ-147" value="" style="edgeStyle=orthogonalEdgeStyle;rounded=0;orthogonalLoop=1;jettySize=auto;html=1;entryX=0;entryY=0.5;entryDx=0;entryDy=0;" edge="1" parent="1" source="ujWKn-uQMi2DjapFLPFJ-132" target="ujWKn-uQMi2DjapFLPFJ-146">
          <mxGeometry relative="1" as="geometry" />
        </mxCell>
        <mxCell id="ujWKn-uQMi2DjapFLPFJ-149" value="" style="edgeStyle=orthogonalEdgeStyle;rounded=0;orthogonalLoop=1;jettySize=auto;html=1;entryX=0;entryY=0.5;entryDx=0;entryDy=0;" edge="1" parent="1" source="ujWKn-uQMi2DjapFLPFJ-132" target="ujWKn-uQMi2DjapFLPFJ-148">
          <mxGeometry relative="1" as="geometry" />
        </mxCell>
        <mxCell id="ujWKn-uQMi2DjapFLPFJ-132" value="Home" style="rounded=1;fillColor=#f8cecc;strokeColor=#b85450;fontStyle=1;fontFamily=Tahoma;fontSize=14;whiteSpace=wrap;" vertex="1" parent="1">
          <mxGeometry x="600" y="300" width="190" height="80" as="geometry" />
        </mxCell>
        <mxCell id="ujWKn-uQMi2DjapFLPFJ-137" value="" style="edgeStyle=orthogonalEdgeStyle;rounded=0;orthogonalLoop=1;jettySize=auto;html=1;entryX=0;entryY=0.5;entryDx=0;entryDy=0;" edge="1" parent="1" source="ujWKn-uQMi2DjapFLPFJ-134" target="ujWKn-uQMi2DjapFLPFJ-136">
          <mxGeometry relative="1" as="geometry" />
        </mxCell>
        <mxCell id="ujWKn-uQMi2DjapFLPFJ-139" value="" style="edgeStyle=orthogonalEdgeStyle;rounded=0;orthogonalLoop=1;jettySize=auto;html=1;entryX=0;entryY=0.5;entryDx=0;entryDy=0;" edge="1" parent="1" source="ujWKn-uQMi2DjapFLPFJ-134" target="ujWKn-uQMi2DjapFLPFJ-138">
          <mxGeometry relative="1" as="geometry" />
        </mxCell>
        <mxCell id="ujWKn-uQMi2DjapFLPFJ-141" value="" style="edgeStyle=orthogonalEdgeStyle;rounded=0;orthogonalLoop=1;jettySize=auto;html=1;entryX=0;entryY=0.5;entryDx=0;entryDy=0;" edge="1" parent="1" source="ujWKn-uQMi2DjapFLPFJ-134" target="ujWKn-uQMi2DjapFLPFJ-140">
          <mxGeometry relative="1" as="geometry" />
        </mxCell>
        <mxCell id="ujWKn-uQMi2DjapFLPFJ-134" value="Header" style="rounded=1;fillColor=#d5e8d4;strokeColor=#82b366;fontStyle=1;fontFamily=Tahoma;fontSize=14;whiteSpace=wrap;" vertex="1" parent="1">
          <mxGeometry x="740" y="400" width="190" height="80" as="geometry" />
        </mxCell>
        <mxCell id="ujWKn-uQMi2DjapFLPFJ-136" value="Title" style="rounded=1;fillColor=#f5f5f5;strokeColor=#666666;fontStyle=1;fontFamily=Tahoma;fontSize=14;whiteSpace=wrap;fontColor=#333333;" vertex="1" parent="1">
          <mxGeometry x="880" y="500" width="190" height="80" as="geometry" />
        </mxCell>
        <mxCell id="ujWKn-uQMi2DjapFLPFJ-138" value="Slogan" style="rounded=1;fillColor=#f5f5f5;strokeColor=#666666;fontStyle=1;fontFamily=Tahoma;fontSize=14;whiteSpace=wrap;fontColor=#333333;" vertex="1" parent="1">
          <mxGeometry x="880" y="600" width="190" height="80" as="geometry" />
        </mxCell>
        <mxCell id="ujWKn-uQMi2DjapFLPFJ-140" value="Background Image" style="rounded=1;fillColor=#f5f5f5;strokeColor=#666666;fontStyle=1;fontFamily=Tahoma;fontSize=14;whiteSpace=wrap;fontColor=#333333;" vertex="1" parent="1">
          <mxGeometry x="880" y="700" width="190" height="80" as="geometry" />
        </mxCell>
        <mxCell id="ujWKn-uQMi2DjapFLPFJ-142" value="About Us&#xa;[Summary/Description]" style="rounded=1;fillColor=#d5e8d4;strokeColor=#82b366;fontStyle=1;fontFamily=Tahoma;fontSize=14;whiteSpace=wrap;" vertex="1" parent="1">
          <mxGeometry x="740" y="800" width="190" height="80" as="geometry" />
        </mxCell>
        <mxCell id="ujWKn-uQMi2DjapFLPFJ-144" value="Get Involved&#xa;[Action Button]" style="rounded=1;fillColor=#d5e8d4;strokeColor=#82b366;fontStyle=1;fontFamily=Tahoma;fontSize=14;whiteSpace=wrap;" vertex="1" parent="1">
          <mxGeometry x="740" y="900" width="190" height="80" as="geometry" />
        </mxCell>
        <mxCell id="ujWKn-uQMi2DjapFLPFJ-146" value="Events&#xa;[Past Events]" style="rounded=1;fillColor=#d5e8d4;strokeColor=#82b366;fontStyle=1;fontFamily=Tahoma;fontSize=14;whiteSpace=wrap;" vertex="1" parent="1">
          <mxGeometry x="740" y="1000" width="190" height="80" as="geometry" />
        </mxCell>
        <mxCell id="ujWKn-uQMi2DjapFLPFJ-148" value="Contact Us" style="rounded=1;fillColor=#d5e8d4;strokeColor=#82b366;fontStyle=1;fontFamily=Tahoma;fontSize=14;whiteSpace=wrap;" vertex="1" parent="1">
          <mxGeometry x="740" y="1100" width="190" height="80" as="geometry" />
        </mxCell>
        <mxCell id="ujWKn-uQMi2DjapFLPFJ-155" value="" style="edgeStyle=orthogonalEdgeStyle;rounded=0;orthogonalLoop=1;jettySize=auto;html=1;entryX=0;entryY=0.5;entryDx=0;entryDy=0;" edge="1" parent="1" source="ujWKn-uQMi2DjapFLPFJ-150" target="ujWKn-uQMi2DjapFLPFJ-154">
          <mxGeometry relative="1" as="geometry" />
        </mxCell>
        <mxCell id="ujWKn-uQMi2DjapFLPFJ-157" value="" style="edgeStyle=orthogonalEdgeStyle;rounded=0;orthogonalLoop=1;jettySize=auto;html=1;entryX=0;entryY=0.5;entryDx=0;entryDy=0;" edge="1" parent="1" source="ujWKn-uQMi2DjapFLPFJ-150" target="ujWKn-uQMi2DjapFLPFJ-156">
          <mxGeometry relative="1" as="geometry" />
        </mxCell>
        <mxCell id="ujWKn-uQMi2DjapFLPFJ-159" value="" style="edgeStyle=orthogonalEdgeStyle;rounded=0;orthogonalLoop=1;jettySize=auto;html=1;entryX=0;entryY=0.5;entryDx=0;entryDy=0;" edge="1" parent="1" source="ujWKn-uQMi2DjapFLPFJ-150" target="ujWKn-uQMi2DjapFLPFJ-158">
          <mxGeometry relative="1" as="geometry" />
        </mxCell>
        <mxCell id="ujWKn-uQMi2DjapFLPFJ-161" value="" style="edgeStyle=orthogonalEdgeStyle;rounded=0;orthogonalLoop=1;jettySize=auto;html=1;entryX=0;entryY=0.5;entryDx=0;entryDy=0;" edge="1" parent="1" source="ujWKn-uQMi2DjapFLPFJ-150" target="ujWKn-uQMi2DjapFLPFJ-160">
          <mxGeometry relative="1" as="geometry" />
        </mxCell>
        <mxCell id="ujWKn-uQMi2DjapFLPFJ-163" value="" style="edgeStyle=orthogonalEdgeStyle;rounded=0;orthogonalLoop=1;jettySize=auto;html=1;entryX=0;entryY=0.5;entryDx=0;entryDy=0;exitX=0.5;exitY=1;exitDx=0;exitDy=0;" edge="1" parent="1" source="ujWKn-uQMi2DjapFLPFJ-150" target="ujWKn-uQMi2DjapFLPFJ-162">
          <mxGeometry relative="1" as="geometry">
            <mxPoint x="1175" y="369.9999999999999" as="sourcePoint" />
          </mxGeometry>
        </mxCell>
        <mxCell id="ujWKn-uQMi2DjapFLPFJ-150" value="About Us" style="rounded=1;fillColor=#f8cecc;strokeColor=#b85450;fontStyle=1;fontFamily=Tahoma;fontSize=14;whiteSpace=wrap;" vertex="1" parent="1">
          <mxGeometry x="1090" y="300" width="190" height="80" as="geometry" />
        </mxCell>
        <mxCell id="ujWKn-uQMi2DjapFLPFJ-154" value="Description" style="rounded=1;fillColor=#d5e8d4;strokeColor=#82b366;fontStyle=1;fontFamily=Tahoma;fontSize=14;whiteSpace=wrap;" vertex="1" parent="1">
          <mxGeometry x="1230" y="400" width="190" height="80" as="geometry" />
        </mxCell>
        <mxCell id="ujWKn-uQMi2DjapFLPFJ-156" value="Our Mission" style="rounded=1;fillColor=#d5e8d4;strokeColor=#82b366;fontStyle=1;fontFamily=Tahoma;fontSize=14;whiteSpace=wrap;" vertex="1" parent="1">
          <mxGeometry x="1230" y="600" width="190" height="80" as="geometry" />
        </mxCell>
        <mxCell id="ujWKn-uQMi2DjapFLPFJ-158" value="Our Vision" style="rounded=1;fillColor=#d5e8d4;strokeColor=#82b366;fontStyle=1;fontFamily=Tahoma;fontSize=14;whiteSpace=wrap;" vertex="1" parent="1">
          <mxGeometry x="1230" y="700" width="190" height="80" as="geometry" />
        </mxCell>
        <mxCell id="ujWKn-uQMi2DjapFLPFJ-160" value="Our Goals" style="rounded=1;fillColor=#d5e8d4;strokeColor=#82b366;fontStyle=1;fontFamily=Tahoma;fontSize=14;whiteSpace=wrap;" vertex="1" parent="1">
          <mxGeometry x="1230" y="800" width="190" height="80" as="geometry" />
        </mxCell>
        <mxCell id="ujWKn-uQMi2DjapFLPFJ-162" value="Services" style="rounded=1;fillColor=#d5e8d4;strokeColor=#82b366;fontStyle=1;fontFamily=Tahoma;fontSize=14;whiteSpace=wrap;" vertex="1" parent="1">
          <mxGeometry x="1230" y="500" width="190" height="80" as="geometry" />
        </mxCell>
        <mxCell id="ujWKn-uQMi2DjapFLPFJ-167" value="" style="edgeStyle=orthogonalEdgeStyle;rounded=0;orthogonalLoop=1;jettySize=auto;html=1;entryX=0;entryY=0.5;entryDx=0;entryDy=0;" edge="1" parent="1" source="ujWKn-uQMi2DjapFLPFJ-164" target="ujWKn-uQMi2DjapFLPFJ-166">
          <mxGeometry relative="1" as="geometry" />
        </mxCell>
        <mxCell id="ujWKn-uQMi2DjapFLPFJ-181" value="" style="edgeStyle=orthogonalEdgeStyle;rounded=0;orthogonalLoop=1;jettySize=auto;html=1;entryX=0;entryY=0.5;entryDx=0;entryDy=0;" edge="1" parent="1" source="ujWKn-uQMi2DjapFLPFJ-164" target="ujWKn-uQMi2DjapFLPFJ-180">
          <mxGeometry relative="1" as="geometry" />
        </mxCell>
        <mxCell id="ujWKn-uQMi2DjapFLPFJ-183" value="" style="edgeStyle=orthogonalEdgeStyle;rounded=0;orthogonalLoop=1;jettySize=auto;html=1;entryX=0;entryY=0.5;entryDx=0;entryDy=0;" edge="1" parent="1" source="ujWKn-uQMi2DjapFLPFJ-164" target="ujWKn-uQMi2DjapFLPFJ-182">
          <mxGeometry relative="1" as="geometry" />
        </mxCell>
        <mxCell id="ujWKn-uQMi2DjapFLPFJ-185" value="" style="edgeStyle=orthogonalEdgeStyle;rounded=0;orthogonalLoop=1;jettySize=auto;html=1;entryX=0;entryY=0.5;entryDx=0;entryDy=0;" edge="1" parent="1" source="ujWKn-uQMi2DjapFLPFJ-164" target="ujWKn-uQMi2DjapFLPFJ-184">
          <mxGeometry relative="1" as="geometry" />
        </mxCell>
        <mxCell id="ujWKn-uQMi2DjapFLPFJ-200" value="" style="edgeStyle=orthogonalEdgeStyle;rounded=0;orthogonalLoop=1;jettySize=auto;html=1;entryX=0;entryY=0.5;entryDx=0;entryDy=0;" edge="1" parent="1" source="ujWKn-uQMi2DjapFLPFJ-164" target="ujWKn-uQMi2DjapFLPFJ-199">
          <mxGeometry relative="1" as="geometry" />
        </mxCell>
        <mxCell id="ujWKn-uQMi2DjapFLPFJ-164" value="Get Involved" style="rounded=1;fillColor=#f8cecc;strokeColor=#b85450;fontStyle=1;fontFamily=Tahoma;fontSize=14;whiteSpace=wrap;" vertex="1" parent="1">
          <mxGeometry x="2070" y="300" width="190" height="80" as="geometry" />
        </mxCell>
        <mxCell id="ujWKn-uQMi2DjapFLPFJ-166" value="Description" style="rounded=1;fillColor=#d5e8d4;strokeColor=#82b366;fontStyle=1;fontFamily=Tahoma;fontSize=14;whiteSpace=wrap;" vertex="1" parent="1">
          <mxGeometry x="2210" y="400" width="190" height="80" as="geometry" />
        </mxCell>
        <mxCell id="ujWKn-uQMi2DjapFLPFJ-180" value="Featured Partners" style="rounded=1;fillColor=#d5e8d4;strokeColor=#82b366;fontStyle=1;fontFamily=Tahoma;fontSize=14;whiteSpace=wrap;" vertex="1" parent="1">
          <mxGeometry x="2210" y="600" width="190" height="80" as="geometry" />
        </mxCell>
        <mxCell id="ujWKn-uQMi2DjapFLPFJ-182" value="What We Do" style="rounded=1;fillColor=#d5e8d4;strokeColor=#82b366;fontStyle=1;fontFamily=Tahoma;fontSize=14;whiteSpace=wrap;" vertex="1" parent="1">
          <mxGeometry x="2210" y="510" width="190" height="70" as="geometry" />
        </mxCell>
        <mxCell id="ujWKn-uQMi2DjapFLPFJ-187" value="" style="edgeStyle=orthogonalEdgeStyle;rounded=0;orthogonalLoop=1;jettySize=auto;html=1;entryX=0;entryY=0.5;entryDx=0;entryDy=0;exitX=0.5;exitY=1;exitDx=0;exitDy=0;" edge="1" parent="1" source="ujWKn-uQMi2DjapFLPFJ-184" target="ujWKn-uQMi2DjapFLPFJ-186">
          <mxGeometry relative="1" as="geometry">
            <mxPoint x="2290" y="780" as="sourcePoint" />
          </mxGeometry>
        </mxCell>
        <mxCell id="ujWKn-uQMi2DjapFLPFJ-184" value="Subscribe" style="rounded=1;fillColor=#d5e8d4;strokeColor=#82b366;fontStyle=1;fontFamily=Tahoma;fontSize=14;whiteSpace=wrap;" vertex="1" parent="1">
          <mxGeometry x="2210" y="700" width="190" height="80" as="geometry" />
        </mxCell>
        <mxCell id="ujWKn-uQMi2DjapFLPFJ-191" value="" style="edgeStyle=orthogonalEdgeStyle;rounded=0;orthogonalLoop=1;jettySize=auto;html=1;entryX=0;entryY=0.5;entryDx=0;entryDy=0;" edge="1" parent="1" source="ujWKn-uQMi2DjapFLPFJ-186" target="ujWKn-uQMi2DjapFLPFJ-190">
          <mxGeometry relative="1" as="geometry" />
        </mxCell>
        <mxCell id="ujWKn-uQMi2DjapFLPFJ-193" value="" style="edgeStyle=orthogonalEdgeStyle;rounded=0;orthogonalLoop=1;jettySize=auto;html=1;entryX=0;entryY=0.5;entryDx=0;entryDy=0;" edge="1" parent="1" source="ujWKn-uQMi2DjapFLPFJ-186" target="ujWKn-uQMi2DjapFLPFJ-192">
          <mxGeometry relative="1" as="geometry" />
        </mxCell>
        <mxCell id="ujWKn-uQMi2DjapFLPFJ-186" value="Payment" style="rounded=1;fillColor=#f5f5f5;strokeColor=#666666;fontStyle=1;fontFamily=Tahoma;fontSize=14;whiteSpace=wrap;fontColor=#333333;" vertex="1" parent="1">
          <mxGeometry x="2350" y="800" width="190" height="80" as="geometry" />
        </mxCell>
        <mxCell id="ujWKn-uQMi2DjapFLPFJ-190" value="Cash" style="rounded=1;fillColor=#e1d5e7;strokeColor=#9673a6;fontStyle=1;fontFamily=Tahoma;fontSize=14;whiteSpace=wrap;" vertex="1" parent="1">
          <mxGeometry x="2490" y="900" width="190" height="80" as="geometry" />
        </mxCell>
        <mxCell id="ujWKn-uQMi2DjapFLPFJ-192" value="Online" style="rounded=1;fillColor=#e1d5e7;strokeColor=#9673a6;fontStyle=1;fontFamily=Tahoma;fontSize=14;whiteSpace=wrap;" vertex="1" parent="1">
          <mxGeometry x="2490" y="1000" width="190" height="80" as="geometry" />
        </mxCell>
        <mxCell id="ujWKn-uQMi2DjapFLPFJ-197" value="" style="edgeStyle=orthogonalEdgeStyle;rounded=0;orthogonalLoop=1;jettySize=auto;html=1;entryX=0;entryY=0.5;entryDx=0;entryDy=0;" edge="1" parent="1" source="ujWKn-uQMi2DjapFLPFJ-194" target="ujWKn-uQMi2DjapFLPFJ-196">
          <mxGeometry relative="1" as="geometry" />
        </mxCell>
        <mxCell id="ujWKn-uQMi2DjapFLPFJ-194" value="Contact Us" style="rounded=1;fillColor=#f8cecc;strokeColor=#b85450;fontStyle=1;fontFamily=Tahoma;fontSize=14;whiteSpace=wrap;" vertex="1" parent="1">
          <mxGeometry x="2700" y="300" width="190" height="80" as="geometry" />
        </mxCell>
        <mxCell id="ujWKn-uQMi2DjapFLPFJ-208" value="" style="edgeStyle=orthogonalEdgeStyle;rounded=0;orthogonalLoop=1;jettySize=auto;html=1;entryX=0;entryY=0.5;entryDx=0;entryDy=0;" edge="1" parent="1" source="ujWKn-uQMi2DjapFLPFJ-196" target="ujWKn-uQMi2DjapFLPFJ-207">
          <mxGeometry relative="1" as="geometry" />
        </mxCell>
        <mxCell id="ujWKn-uQMi2DjapFLPFJ-212" value="" style="edgeStyle=orthogonalEdgeStyle;rounded=0;orthogonalLoop=1;jettySize=auto;html=1;entryX=0;entryY=0.5;entryDx=0;entryDy=0;" edge="1" parent="1" source="ujWKn-uQMi2DjapFLPFJ-196" target="ujWKn-uQMi2DjapFLPFJ-211">
          <mxGeometry relative="1" as="geometry" />
        </mxCell>
        <mxCell id="ujWKn-uQMi2DjapFLPFJ-214" value="" style="edgeStyle=orthogonalEdgeStyle;rounded=0;orthogonalLoop=1;jettySize=auto;html=1;entryX=0;entryY=0.5;entryDx=0;entryDy=0;" edge="1" parent="1" source="ujWKn-uQMi2DjapFLPFJ-196" target="ujWKn-uQMi2DjapFLPFJ-213">
          <mxGeometry relative="1" as="geometry" />
        </mxCell>
        <mxCell id="ujWKn-uQMi2DjapFLPFJ-216" value="" style="edgeStyle=orthogonalEdgeStyle;rounded=0;orthogonalLoop=1;jettySize=auto;html=1;entryX=0;entryY=0.5;entryDx=0;entryDy=0;" edge="1" parent="1" source="ujWKn-uQMi2DjapFLPFJ-196" target="ujWKn-uQMi2DjapFLPFJ-215">
          <mxGeometry relative="1" as="geometry" />
        </mxCell>
        <mxCell id="ujWKn-uQMi2DjapFLPFJ-196" value="Form" style="rounded=1;fillColor=#d5e8d4;strokeColor=#82b366;fontStyle=1;fontFamily=Tahoma;fontSize=14;whiteSpace=wrap;" vertex="1" parent="1">
          <mxGeometry x="2840" y="400" width="190" height="80" as="geometry" />
        </mxCell>
        <mxCell id="ujWKn-uQMi2DjapFLPFJ-202" value="" style="edgeStyle=orthogonalEdgeStyle;rounded=0;orthogonalLoop=1;jettySize=auto;html=1;entryX=0;entryY=0.5;entryDx=0;entryDy=0;" edge="1" parent="1" source="ujWKn-uQMi2DjapFLPFJ-199" target="ujWKn-uQMi2DjapFLPFJ-201">
          <mxGeometry relative="1" as="geometry" />
        </mxCell>
        <mxCell id="ujWKn-uQMi2DjapFLPFJ-199" value="Dontate" style="rounded=1;fillColor=#d5e8d4;strokeColor=#82b366;fontStyle=1;fontFamily=Tahoma;fontSize=14;whiteSpace=wrap;" vertex="1" parent="1">
          <mxGeometry x="2210" y="1100" width="190" height="80" as="geometry" />
        </mxCell>
        <mxCell id="ujWKn-uQMi2DjapFLPFJ-201" value="Payment" style="rounded=1;fillColor=#f5f5f5;strokeColor=#666666;fontStyle=1;fontFamily=Tahoma;fontSize=14;whiteSpace=wrap;fontColor=#333333;" vertex="1" parent="1">
          <mxGeometry x="2350" y="1200" width="190" height="80" as="geometry" />
        </mxCell>
        <mxCell id="ujWKn-uQMi2DjapFLPFJ-203" value="" style="edgeStyle=orthogonalEdgeStyle;rounded=0;orthogonalLoop=1;jettySize=auto;html=1;entryX=0;entryY=0.5;entryDx=0;entryDy=0;exitX=0.5;exitY=1;exitDx=0;exitDy=0;" edge="1" parent="1" target="ujWKn-uQMi2DjapFLPFJ-205" source="ujWKn-uQMi2DjapFLPFJ-201">
          <mxGeometry relative="1" as="geometry">
            <mxPoint x="2445" y="1280" as="sourcePoint" />
          </mxGeometry>
        </mxCell>
        <mxCell id="ujWKn-uQMi2DjapFLPFJ-204" value="" style="edgeStyle=orthogonalEdgeStyle;rounded=0;orthogonalLoop=1;jettySize=auto;html=1;entryX=0;entryY=0.5;entryDx=0;entryDy=0;exitX=0.5;exitY=1;exitDx=0;exitDy=0;" edge="1" parent="1" target="ujWKn-uQMi2DjapFLPFJ-206" source="ujWKn-uQMi2DjapFLPFJ-201">
          <mxGeometry relative="1" as="geometry">
            <mxPoint x="2445" y="1280" as="sourcePoint" />
          </mxGeometry>
        </mxCell>
        <mxCell id="ujWKn-uQMi2DjapFLPFJ-205" value="Cash" style="rounded=1;fillColor=#e1d5e7;strokeColor=#9673a6;fontStyle=1;fontFamily=Tahoma;fontSize=14;whiteSpace=wrap;" vertex="1" parent="1">
          <mxGeometry x="2490" y="1300" width="190" height="80" as="geometry" />
        </mxCell>
        <mxCell id="ujWKn-uQMi2DjapFLPFJ-206" value="Online" style="rounded=1;fillColor=#e1d5e7;strokeColor=#9673a6;fontStyle=1;fontFamily=Tahoma;fontSize=14;whiteSpace=wrap;" vertex="1" parent="1">
          <mxGeometry x="2490" y="1400" width="190" height="80" as="geometry" />
        </mxCell>
        <mxCell id="ujWKn-uQMi2DjapFLPFJ-207" value="Email" style="rounded=1;fillColor=#f5f5f5;strokeColor=#666666;fontStyle=1;fontFamily=Tahoma;fontSize=14;whiteSpace=wrap;fontColor=#333333;" vertex="1" parent="1">
          <mxGeometry x="2980" y="500" width="190" height="80" as="geometry" />
        </mxCell>
        <mxCell id="ujWKn-uQMi2DjapFLPFJ-211" value="Name" style="rounded=1;fillColor=#f5f5f5;strokeColor=#666666;fontStyle=1;fontFamily=Tahoma;fontSize=14;whiteSpace=wrap;fontColor=#333333;" vertex="1" parent="1">
          <mxGeometry x="2980" y="600" width="190" height="80" as="geometry" />
        </mxCell>
        <mxCell id="ujWKn-uQMi2DjapFLPFJ-213" value="Subject" style="rounded=1;fillColor=#f5f5f5;strokeColor=#666666;fontStyle=1;fontFamily=Tahoma;fontSize=14;whiteSpace=wrap;fontColor=#333333;" vertex="1" parent="1">
          <mxGeometry x="2980" y="700" width="190" height="80" as="geometry" />
        </mxCell>
        <mxCell id="ujWKn-uQMi2DjapFLPFJ-215" value="Message" style="rounded=1;fillColor=#f5f5f5;strokeColor=#666666;fontStyle=1;fontFamily=Tahoma;fontSize=14;whiteSpace=wrap;fontColor=#333333;" vertex="1" parent="1">
          <mxGeometry x="2980" y="800" width="190" height="80" as="geometry" />
        </mxCell>
        <mxCell id="ujWKn-uQMi2DjapFLPFJ-221" value="" style="edgeStyle=orthogonalEdgeStyle;rounded=0;orthogonalLoop=1;jettySize=auto;html=1;entryX=0;entryY=0.5;entryDx=0;entryDy=0;" edge="1" parent="1" source="ujWKn-uQMi2DjapFLPFJ-218" target="ujWKn-uQMi2DjapFLPFJ-220">
          <mxGeometry relative="1" as="geometry" />
        </mxCell>
        <mxCell id="ujWKn-uQMi2DjapFLPFJ-227" value="" style="edgeStyle=orthogonalEdgeStyle;rounded=0;orthogonalLoop=1;jettySize=auto;html=1;entryX=0;entryY=0.5;entryDx=0;entryDy=0;" edge="1" parent="1" source="ujWKn-uQMi2DjapFLPFJ-218" target="ujWKn-uQMi2DjapFLPFJ-226">
          <mxGeometry relative="1" as="geometry" />
        </mxCell>
        <mxCell id="ujWKn-uQMi2DjapFLPFJ-238" value="" style="edgeStyle=orthogonalEdgeStyle;rounded=0;orthogonalLoop=1;jettySize=auto;html=1;entryX=0;entryY=0.5;entryDx=0;entryDy=0;" edge="1" parent="1" source="ujWKn-uQMi2DjapFLPFJ-218" target="ujWKn-uQMi2DjapFLPFJ-237">
          <mxGeometry relative="1" as="geometry" />
        </mxCell>
        <mxCell id="ujWKn-uQMi2DjapFLPFJ-250" value="" style="edgeStyle=orthogonalEdgeStyle;rounded=0;orthogonalLoop=1;jettySize=auto;html=1;" edge="1" parent="1" source="ujWKn-uQMi2DjapFLPFJ-218" target="ujWKn-uQMi2DjapFLPFJ-249">
          <mxGeometry relative="1" as="geometry" />
        </mxCell>
        <mxCell id="ujWKn-uQMi2DjapFLPFJ-218" value="Events" style="rounded=1;fillColor=#f8cecc;strokeColor=#b85450;fontStyle=1;fontFamily=Tahoma;fontSize=14;whiteSpace=wrap;" vertex="1" parent="1">
          <mxGeometry x="1440" y="300" width="190" height="80" as="geometry" />
        </mxCell>
        <mxCell id="ujWKn-uQMi2DjapFLPFJ-223" value="" style="edgeStyle=orthogonalEdgeStyle;rounded=0;orthogonalLoop=1;jettySize=auto;html=1;entryX=0;entryY=0.5;entryDx=0;entryDy=0;" edge="1" parent="1" source="ujWKn-uQMi2DjapFLPFJ-220" target="ujWKn-uQMi2DjapFLPFJ-222">
          <mxGeometry relative="1" as="geometry" />
        </mxCell>
        <mxCell id="ujWKn-uQMi2DjapFLPFJ-225" value="" style="edgeStyle=orthogonalEdgeStyle;rounded=0;orthogonalLoop=1;jettySize=auto;html=1;entryX=0;entryY=0.5;entryDx=0;entryDy=0;" edge="1" parent="1" source="ujWKn-uQMi2DjapFLPFJ-220" target="ujWKn-uQMi2DjapFLPFJ-224">
          <mxGeometry relative="1" as="geometry" />
        </mxCell>
        <mxCell id="ujWKn-uQMi2DjapFLPFJ-269" value="" style="edgeStyle=orthogonalEdgeStyle;rounded=0;orthogonalLoop=1;jettySize=auto;html=1;entryX=0;entryY=0.5;entryDx=0;entryDy=0;" edge="1" parent="1" source="ujWKn-uQMi2DjapFLPFJ-220" target="ujWKn-uQMi2DjapFLPFJ-268">
          <mxGeometry relative="1" as="geometry" />
        </mxCell>
        <mxCell id="ujWKn-uQMi2DjapFLPFJ-220" value="Listing" style="rounded=1;fillColor=#d5e8d4;strokeColor=#82b366;fontStyle=1;fontFamily=Tahoma;fontSize=14;whiteSpace=wrap;" vertex="1" parent="1">
          <mxGeometry x="1580" y="999" width="190" height="80" as="geometry" />
        </mxCell>
        <mxCell id="ujWKn-uQMi2DjapFLPFJ-222" value="Calendar" style="rounded=1;fillColor=#f5f5f5;strokeColor=#666666;fontStyle=1;fontFamily=Tahoma;fontSize=14;whiteSpace=wrap;fontColor=#333333;" vertex="1" parent="1">
          <mxGeometry x="1720" y="1099" width="190" height="80" as="geometry" />
        </mxCell>
        <mxCell id="ujWKn-uQMi2DjapFLPFJ-224" value="Grid Style" style="rounded=1;fillColor=#f5f5f5;strokeColor=#666666;fontStyle=1;fontFamily=Tahoma;fontSize=14;whiteSpace=wrap;fontColor=#333333;" vertex="1" parent="1">
          <mxGeometry x="1720" y="1199" width="190" height="80" as="geometry" />
        </mxCell>
        <mxCell id="ujWKn-uQMi2DjapFLPFJ-229" value="" style="edgeStyle=orthogonalEdgeStyle;rounded=0;orthogonalLoop=1;jettySize=auto;html=1;entryX=0;entryY=0.5;entryDx=0;entryDy=0;" edge="1" parent="1" source="ujWKn-uQMi2DjapFLPFJ-226" target="ujWKn-uQMi2DjapFLPFJ-228">
          <mxGeometry relative="1" as="geometry" />
        </mxCell>
        <mxCell id="ujWKn-uQMi2DjapFLPFJ-231" value="" style="edgeStyle=orthogonalEdgeStyle;rounded=0;orthogonalLoop=1;jettySize=auto;html=1;entryX=0;entryY=0.5;entryDx=0;entryDy=0;" edge="1" parent="1" source="ujWKn-uQMi2DjapFLPFJ-226" target="ujWKn-uQMi2DjapFLPFJ-230">
          <mxGeometry relative="1" as="geometry" />
        </mxCell>
        <mxCell id="ujWKn-uQMi2DjapFLPFJ-233" value="" style="edgeStyle=orthogonalEdgeStyle;rounded=0;orthogonalLoop=1;jettySize=auto;html=1;entryX=0;entryY=0.5;entryDx=0;entryDy=0;" edge="1" parent="1" source="ujWKn-uQMi2DjapFLPFJ-226" target="ujWKn-uQMi2DjapFLPFJ-232">
          <mxGeometry relative="1" as="geometry" />
        </mxCell>
        <mxCell id="ujWKn-uQMi2DjapFLPFJ-226" value="Filtering" style="rounded=1;fillColor=#d5e8d4;strokeColor=#82b366;fontStyle=1;fontFamily=Tahoma;fontSize=14;whiteSpace=wrap;" vertex="1" parent="1">
          <mxGeometry x="1580" y="1399" width="190" height="80" as="geometry" />
        </mxCell>
        <mxCell id="ujWKn-uQMi2DjapFLPFJ-265" value="" style="edgeStyle=orthogonalEdgeStyle;rounded=0;orthogonalLoop=1;jettySize=auto;html=1;entryX=0;entryY=0.5;entryDx=0;entryDy=0;" edge="1" parent="1" source="ujWKn-uQMi2DjapFLPFJ-228" target="ujWKn-uQMi2DjapFLPFJ-264">
          <mxGeometry relative="1" as="geometry" />
        </mxCell>
        <mxCell id="ujWKn-uQMi2DjapFLPFJ-267" value="" style="edgeStyle=orthogonalEdgeStyle;rounded=0;orthogonalLoop=1;jettySize=auto;html=1;entryX=0;entryY=0.5;entryDx=0;entryDy=0;" edge="1" parent="1" source="ujWKn-uQMi2DjapFLPFJ-228" target="ujWKn-uQMi2DjapFLPFJ-266">
          <mxGeometry relative="1" as="geometry" />
        </mxCell>
        <mxCell id="ujWKn-uQMi2DjapFLPFJ-228" value="Type" style="rounded=1;fillColor=#f5f5f5;strokeColor=#666666;fontStyle=1;fontFamily=Tahoma;fontSize=14;whiteSpace=wrap;fontColor=#333333;" vertex="1" parent="1">
          <mxGeometry x="1720" y="1499" width="190" height="80" as="geometry" />
        </mxCell>
        <mxCell id="ujWKn-uQMi2DjapFLPFJ-230" value="Title" style="rounded=1;fillColor=#f5f5f5;strokeColor=#666666;fontStyle=1;fontFamily=Tahoma;fontSize=14;whiteSpace=wrap;fontColor=#333333;" vertex="1" parent="1">
          <mxGeometry x="1720" y="1799" width="190" height="80" as="geometry" />
        </mxCell>
        <mxCell id="ujWKn-uQMi2DjapFLPFJ-232" value="Date Time" style="rounded=1;fillColor=#f5f5f5;strokeColor=#666666;fontStyle=1;fontFamily=Tahoma;fontSize=14;whiteSpace=wrap;fontColor=#333333;" vertex="1" parent="1">
          <mxGeometry x="1720" y="1899" width="190" height="80" as="geometry" />
        </mxCell>
        <mxCell id="ujWKn-uQMi2DjapFLPFJ-240" value="" style="edgeStyle=orthogonalEdgeStyle;rounded=0;orthogonalLoop=1;jettySize=auto;html=1;entryX=0;entryY=0.5;entryDx=0;entryDy=0;" edge="1" parent="1" source="ujWKn-uQMi2DjapFLPFJ-237" target="ujWKn-uQMi2DjapFLPFJ-239">
          <mxGeometry relative="1" as="geometry" />
        </mxCell>
        <mxCell id="ujWKn-uQMi2DjapFLPFJ-271" value="" style="edgeStyle=orthogonalEdgeStyle;rounded=0;orthogonalLoop=1;jettySize=auto;html=1;entryX=0;entryY=0.5;entryDx=0;entryDy=0;" edge="1" parent="1" source="ujWKn-uQMi2DjapFLPFJ-237" target="ujWKn-uQMi2DjapFLPFJ-270">
          <mxGeometry relative="1" as="geometry" />
        </mxCell>
        <mxCell id="ujWKn-uQMi2DjapFLPFJ-237" value="Register In Event" style="rounded=1;fillColor=#d5e8d4;strokeColor=#82b366;fontStyle=1;fontFamily=Tahoma;fontSize=14;whiteSpace=wrap;" vertex="1" parent="1">
          <mxGeometry x="1581" y="1999" width="190" height="80" as="geometry" />
        </mxCell>
        <mxCell id="ujWKn-uQMi2DjapFLPFJ-242" value="" style="edgeStyle=orthogonalEdgeStyle;rounded=0;orthogonalLoop=1;jettySize=auto;html=1;entryX=0;entryY=0.5;entryDx=0;entryDy=0;" edge="1" parent="1" source="ujWKn-uQMi2DjapFLPFJ-239" target="ujWKn-uQMi2DjapFLPFJ-241">
          <mxGeometry relative="1" as="geometry" />
        </mxCell>
        <mxCell id="ujWKn-uQMi2DjapFLPFJ-244" value="" style="edgeStyle=orthogonalEdgeStyle;rounded=0;orthogonalLoop=1;jettySize=auto;html=1;entryX=0;entryY=0.5;entryDx=0;entryDy=0;" edge="1" parent="1" source="ujWKn-uQMi2DjapFLPFJ-239" target="ujWKn-uQMi2DjapFLPFJ-243">
          <mxGeometry relative="1" as="geometry" />
        </mxCell>
        <mxCell id="ujWKn-uQMi2DjapFLPFJ-239" value="Payment" style="rounded=1;fillColor=#f5f5f5;strokeColor=#666666;fontStyle=1;fontFamily=Tahoma;fontSize=14;whiteSpace=wrap;fontColor=#333333;" vertex="1" parent="1">
          <mxGeometry x="1720" y="2099" width="190" height="80" as="geometry" />
        </mxCell>
        <mxCell id="ujWKn-uQMi2DjapFLPFJ-241" value="Cash" style="rounded=1;fillColor=#e1d5e7;strokeColor=#9673a6;fontStyle=1;fontFamily=Tahoma;fontSize=14;whiteSpace=wrap;" vertex="1" parent="1">
          <mxGeometry x="1860" y="2199" width="190" height="80" as="geometry" />
        </mxCell>
        <mxCell id="ujWKn-uQMi2DjapFLPFJ-243" value="Online" style="rounded=1;fillColor=#e1d5e7;strokeColor=#9673a6;fontStyle=1;fontFamily=Tahoma;fontSize=14;whiteSpace=wrap;" vertex="1" parent="1">
          <mxGeometry x="1860" y="2299" width="190" height="80" as="geometry" />
        </mxCell>
        <mxCell id="ujWKn-uQMi2DjapFLPFJ-252" value="" style="edgeStyle=orthogonalEdgeStyle;rounded=0;orthogonalLoop=1;jettySize=auto;html=1;entryX=0;entryY=0.5;entryDx=0;entryDy=0;" edge="1" parent="1" source="ujWKn-uQMi2DjapFLPFJ-249" target="ujWKn-uQMi2DjapFLPFJ-251">
          <mxGeometry relative="1" as="geometry" />
        </mxCell>
        <mxCell id="ujWKn-uQMi2DjapFLPFJ-254" value="" style="edgeStyle=orthogonalEdgeStyle;rounded=0;orthogonalLoop=1;jettySize=auto;html=1;entryX=0;entryY=0.5;entryDx=0;entryDy=0;" edge="1" parent="1" source="ujWKn-uQMi2DjapFLPFJ-249" target="ujWKn-uQMi2DjapFLPFJ-253">
          <mxGeometry relative="1" as="geometry" />
        </mxCell>
        <mxCell id="ujWKn-uQMi2DjapFLPFJ-256" value="" style="edgeStyle=orthogonalEdgeStyle;rounded=0;orthogonalLoop=1;jettySize=auto;html=1;entryX=0;entryY=0.5;entryDx=0;entryDy=0;" edge="1" parent="1" source="ujWKn-uQMi2DjapFLPFJ-249" target="ujWKn-uQMi2DjapFLPFJ-255">
          <mxGeometry relative="1" as="geometry" />
        </mxCell>
        <mxCell id="ujWKn-uQMi2DjapFLPFJ-258" value="" style="edgeStyle=orthogonalEdgeStyle;rounded=0;orthogonalLoop=1;jettySize=auto;html=1;entryX=0;entryY=0.5;entryDx=0;entryDy=0;" edge="1" parent="1" source="ujWKn-uQMi2DjapFLPFJ-249" target="ujWKn-uQMi2DjapFLPFJ-257">
          <mxGeometry relative="1" as="geometry" />
        </mxCell>
        <mxCell id="ujWKn-uQMi2DjapFLPFJ-260" value="" style="edgeStyle=orthogonalEdgeStyle;rounded=0;orthogonalLoop=1;jettySize=auto;html=1;entryX=0;entryY=0.5;entryDx=0;entryDy=0;" edge="1" parent="1" source="ujWKn-uQMi2DjapFLPFJ-249" target="ujWKn-uQMi2DjapFLPFJ-259">
          <mxGeometry relative="1" as="geometry" />
        </mxCell>
        <mxCell id="ujWKn-uQMi2DjapFLPFJ-249" value="Information" style="rounded=1;fillColor=#d5e8d4;strokeColor=#82b366;fontStyle=1;fontFamily=Tahoma;fontSize=14;whiteSpace=wrap;" vertex="1" parent="1">
          <mxGeometry x="1581" y="400" width="190" height="80" as="geometry" />
        </mxCell>
        <mxCell id="ujWKn-uQMi2DjapFLPFJ-251" value="Images/Videos" style="rounded=1;fillColor=#f5f5f5;strokeColor=#666666;fontStyle=1;fontFamily=Tahoma;fontSize=14;whiteSpace=wrap;fontColor=#333333;" vertex="1" parent="1">
          <mxGeometry x="1720" y="500" width="190" height="80" as="geometry" />
        </mxCell>
        <mxCell id="ujWKn-uQMi2DjapFLPFJ-253" value="Title" style="rounded=1;fillColor=#f5f5f5;strokeColor=#666666;fontStyle=1;fontFamily=Tahoma;fontSize=14;whiteSpace=wrap;fontColor=#333333;" vertex="1" parent="1">
          <mxGeometry x="1720" y="600" width="190" height="80" as="geometry" />
        </mxCell>
        <mxCell id="ujWKn-uQMi2DjapFLPFJ-255" value="Description" style="rounded=1;fillColor=#f5f5f5;strokeColor=#666666;fontStyle=1;fontFamily=Tahoma;fontSize=14;whiteSpace=wrap;fontColor=#333333;" vertex="1" parent="1">
          <mxGeometry x="1720" y="700" width="190" height="80" as="geometry" />
        </mxCell>
        <mxCell id="ujWKn-uQMi2DjapFLPFJ-257" value="Date Time" style="rounded=1;fillColor=#f5f5f5;strokeColor=#666666;fontStyle=1;fontFamily=Tahoma;fontSize=14;whiteSpace=wrap;fontColor=#333333;" vertex="1" parent="1">
          <mxGeometry x="1720" y="800" width="190" height="80" as="geometry" />
        </mxCell>
        <mxCell id="ujWKn-uQMi2DjapFLPFJ-259" value="Location" style="rounded=1;fillColor=#f5f5f5;strokeColor=#666666;fontStyle=1;fontFamily=Tahoma;fontSize=14;whiteSpace=wrap;fontColor=#333333;" vertex="1" parent="1">
          <mxGeometry x="1720" y="900" width="190" height="80" as="geometry" />
        </mxCell>
        <mxCell id="ujWKn-uQMi2DjapFLPFJ-264" value="Up-Coming" style="rounded=1;fillColor=#e1d5e7;strokeColor=#9673a6;fontStyle=1;fontFamily=Tahoma;fontSize=14;whiteSpace=wrap;" vertex="1" parent="1">
          <mxGeometry x="1860" y="1600" width="190" height="80" as="geometry" />
        </mxCell>
        <mxCell id="ujWKn-uQMi2DjapFLPFJ-266" value="Past" style="rounded=1;fillColor=#e1d5e7;strokeColor=#9673a6;fontStyle=1;fontFamily=Tahoma;fontSize=14;whiteSpace=wrap;" vertex="1" parent="1">
          <mxGeometry x="1860" y="1700" width="190" height="80" as="geometry" />
        </mxCell>
        <mxCell id="ujWKn-uQMi2DjapFLPFJ-268" value="Registered Events" style="rounded=1;fillColor=#f5f5f5;strokeColor=#666666;fontStyle=1;fontFamily=Tahoma;fontSize=14;whiteSpace=wrap;fontColor=#333333;" vertex="1" parent="1">
          <mxGeometry x="1720" y="1300" width="190" height="80" as="geometry" />
        </mxCell>
        <mxCell id="ujWKn-uQMi2DjapFLPFJ-270" value="Form" style="rounded=1;fillColor=#f5f5f5;strokeColor=#666666;fontStyle=1;fontFamily=Tahoma;fontSize=14;whiteSpace=wrap;fontColor=#333333;" vertex="1" parent="1">
          <mxGeometry x="1730" y="2401" width="190" height="80" as="geometry" />
        </mxCell>
        <mxCell id="ujWKn-uQMi2DjapFLPFJ-275" value="" style="edgeStyle=orthogonalEdgeStyle;rounded=0;orthogonalLoop=1;jettySize=auto;html=1;entryX=0;entryY=0.5;entryDx=0;entryDy=0;" edge="1" parent="1" source="ujWKn-uQMi2DjapFLPFJ-272" target="ujWKn-uQMi2DjapFLPFJ-274">
          <mxGeometry relative="1" as="geometry" />
        </mxCell>
        <mxCell id="ujWKn-uQMi2DjapFLPFJ-277" value="" style="edgeStyle=orthogonalEdgeStyle;rounded=0;orthogonalLoop=1;jettySize=auto;html=1;entryX=0;entryY=0.5;entryDx=0;entryDy=0;" edge="1" parent="1" source="ujWKn-uQMi2DjapFLPFJ-272" target="ujWKn-uQMi2DjapFLPFJ-276">
          <mxGeometry relative="1" as="geometry" />
        </mxCell>
        <mxCell id="ujWKn-uQMi2DjapFLPFJ-279" value="" style="edgeStyle=orthogonalEdgeStyle;rounded=0;orthogonalLoop=1;jettySize=auto;html=1;entryX=0;entryY=0.5;entryDx=0;entryDy=0;" edge="1" parent="1" source="ujWKn-uQMi2DjapFLPFJ-272" target="ujWKn-uQMi2DjapFLPFJ-278">
          <mxGeometry relative="1" as="geometry" />
        </mxCell>
        <mxCell id="ujWKn-uQMi2DjapFLPFJ-272" value="Footer" style="rounded=1;fillColor=#f8cecc;strokeColor=#b85450;fontStyle=1;fontFamily=Tahoma;fontSize=14;whiteSpace=wrap;" vertex="1" parent="1">
          <mxGeometry x="3190" y="300" width="190" height="80" as="geometry" />
        </mxCell>
        <mxCell id="ujWKn-uQMi2DjapFLPFJ-274" value="Social Links" style="rounded=1;fillColor=#d5e8d4;strokeColor=#82b366;fontStyle=1;fontFamily=Tahoma;fontSize=14;whiteSpace=wrap;" vertex="1" parent="1">
          <mxGeometry x="3330" y="400" width="190" height="80" as="geometry" />
        </mxCell>
        <mxCell id="ujWKn-uQMi2DjapFLPFJ-276" value="Logo" style="rounded=1;fillColor=#d5e8d4;strokeColor=#82b366;fontStyle=1;fontFamily=Tahoma;fontSize=14;whiteSpace=wrap;" vertex="1" parent="1">
          <mxGeometry x="3330" y="500" width="190" height="80" as="geometry" />
        </mxCell>
        <mxCell id="ujWKn-uQMi2DjapFLPFJ-278" value="Subscribe To&#xa;NewsLetter" style="rounded=1;fillColor=#d5e8d4;strokeColor=#82b366;fontStyle=1;fontFamily=Tahoma;fontSize=14;whiteSpace=wrap;" vertex="1" parent="1">
          <mxGeometry x="3330" y="600" width="190" height="80" as="geometry" />
        </mxCell>
      </root>
    </mxGraphModel>
  </diagram>
  <diagram id="E1-HPc2aurfwmEyT2MkY" name="Dashboard">
    <mxGraphModel dx="1146" dy="1491" grid="1" gridSize="10" guides="1" tooltips="1" connect="1" arrows="1" fold="1" page="1" pageScale="1" pageWidth="850" pageHeight="1100" math="0" shadow="0">
      <root>
        <mxCell id="0" />
        <mxCell id="1" parent="0" />
        <mxCell id="Ns0Z2V4CjSXBU8SaPPjA-3" value="" style="edgeStyle=orthogonalEdgeStyle;rounded=0;orthogonalLoop=1;jettySize=auto;html=1;exitX=0.5;exitY=1;exitDx=0;exitDy=0;" parent="1" source="Ns0Z2V4CjSXBU8SaPPjA-1" target="Ns0Z2V4CjSXBU8SaPPjA-2" edge="1">
          <mxGeometry relative="1" as="geometry" />
        </mxCell>
        <mxCell id="Ns0Z2V4CjSXBU8SaPPjA-9" value="" style="edgeStyle=orthogonalEdgeStyle;rounded=0;orthogonalLoop=1;jettySize=auto;html=1;exitX=0.5;exitY=1;exitDx=0;exitDy=0;" parent="1" source="Ns0Z2V4CjSXBU8SaPPjA-1" target="Ns0Z2V4CjSXBU8SaPPjA-8" edge="1">
          <mxGeometry relative="1" as="geometry" />
        </mxCell>
        <mxCell id="uuBvShlZYirNDqHIMP03-6" value="" style="edgeStyle=orthogonalEdgeStyle;rounded=0;orthogonalLoop=1;jettySize=auto;html=1;exitX=0.5;exitY=1;exitDx=0;exitDy=0;" parent="1" source="Ns0Z2V4CjSXBU8SaPPjA-1" target="uuBvShlZYirNDqHIMP03-5" edge="1">
          <mxGeometry relative="1" as="geometry" />
        </mxCell>
        <mxCell id="WJD5iPI7XFXcdI3w-YtY-2" value="" style="edgeStyle=orthogonalEdgeStyle;rounded=0;orthogonalLoop=1;jettySize=auto;html=1;exitX=0.5;exitY=1;exitDx=0;exitDy=0;" parent="1" source="Ns0Z2V4CjSXBU8SaPPjA-1" target="WJD5iPI7XFXcdI3w-YtY-1" edge="1">
          <mxGeometry relative="1" as="geometry" />
        </mxCell>
        <mxCell id="WJD5iPI7XFXcdI3w-YtY-8" value="" style="edgeStyle=orthogonalEdgeStyle;rounded=0;orthogonalLoop=1;jettySize=auto;html=1;exitX=0.5;exitY=1;exitDx=0;exitDy=0;" parent="1" source="Ns0Z2V4CjSXBU8SaPPjA-1" target="WJD5iPI7XFXcdI3w-YtY-7" edge="1">
          <mxGeometry relative="1" as="geometry" />
        </mxCell>
        <mxCell id="Ns0Z2V4CjSXBU8SaPPjA-1" value="Dashboard/Super Admin" style="rounded=1;fillColor=#dae8fc;strokeColor=#6c8ebf;fontStyle=1;fontFamily=Tahoma;fontSize=14;whiteSpace=wrap;" parent="1" vertex="1">
          <mxGeometry x="2340" y="70" width="190" height="80" as="geometry" />
        </mxCell>
        <mxCell id="Ns0Z2V4CjSXBU8SaPPjA-5" value="" style="edgeStyle=orthogonalEdgeStyle;rounded=0;orthogonalLoop=1;jettySize=auto;html=1;entryX=0;entryY=0.5;entryDx=0;entryDy=0;" parent="1" source="Ns0Z2V4CjSXBU8SaPPjA-2" target="Ns0Z2V4CjSXBU8SaPPjA-4" edge="1">
          <mxGeometry relative="1" as="geometry" />
        </mxCell>
        <mxCell id="Ns0Z2V4CjSXBU8SaPPjA-7" value="" style="edgeStyle=orthogonalEdgeStyle;rounded=0;orthogonalLoop=1;jettySize=auto;html=1;entryX=0;entryY=0.5;entryDx=0;entryDy=0;" parent="1" source="Ns0Z2V4CjSXBU8SaPPjA-2" target="Ns0Z2V4CjSXBU8SaPPjA-6" edge="1">
          <mxGeometry relative="1" as="geometry" />
        </mxCell>
        <mxCell id="uuBvShlZYirNDqHIMP03-4" value="" style="edgeStyle=orthogonalEdgeStyle;rounded=0;orthogonalLoop=1;jettySize=auto;html=1;entryX=0;entryY=0.5;entryDx=0;entryDy=0;" parent="1" source="Ns0Z2V4CjSXBU8SaPPjA-2" target="uuBvShlZYirNDqHIMP03-3" edge="1">
          <mxGeometry relative="1" as="geometry" />
        </mxCell>
        <mxCell id="Ns0Z2V4CjSXBU8SaPPjA-2" value="User Management" style="rounded=1;fillColor=#f8cecc;strokeColor=#b85450;fontStyle=1;fontFamily=Tahoma;fontSize=14;whiteSpace=wrap;" parent="1" vertex="1">
          <mxGeometry x="1890" y="190" width="190" height="80" as="geometry" />
        </mxCell>
        <mxCell id="Ns0Z2V4CjSXBU8SaPPjA-4" value="Users" style="rounded=1;fillColor=#d5e8d4;strokeColor=#82b366;fontStyle=1;fontFamily=Tahoma;fontSize=14;whiteSpace=wrap;" parent="1" vertex="1">
          <mxGeometry x="2030" y="290" width="190" height="80" as="geometry" />
        </mxCell>
        <mxCell id="Ns0Z2V4CjSXBU8SaPPjA-6" value="Newsletter Subscription" style="rounded=1;fillColor=#d5e8d4;strokeColor=#82b366;fontStyle=1;fontFamily=Tahoma;fontSize=14;whiteSpace=wrap;" parent="1" vertex="1">
          <mxGeometry x="2030" y="390" width="190" height="80" as="geometry" />
        </mxCell>
        <mxCell id="Ns0Z2V4CjSXBU8SaPPjA-11" value="" style="edgeStyle=orthogonalEdgeStyle;rounded=0;orthogonalLoop=1;jettySize=auto;html=1;entryX=0;entryY=0.5;entryDx=0;entryDy=0;" parent="1" source="Ns0Z2V4CjSXBU8SaPPjA-8" target="Ns0Z2V4CjSXBU8SaPPjA-10" edge="1">
          <mxGeometry relative="1" as="geometry" />
        </mxCell>
        <mxCell id="Ns0Z2V4CjSXBU8SaPPjA-13" value="" style="edgeStyle=orthogonalEdgeStyle;rounded=0;orthogonalLoop=1;jettySize=auto;html=1;entryX=0;entryY=0.5;entryDx=0;entryDy=0;" parent="1" source="Ns0Z2V4CjSXBU8SaPPjA-8" target="Ns0Z2V4CjSXBU8SaPPjA-12" edge="1">
          <mxGeometry relative="1" as="geometry" />
        </mxCell>
        <mxCell id="Ns0Z2V4CjSXBU8SaPPjA-15" value="" style="edgeStyle=orthogonalEdgeStyle;rounded=0;orthogonalLoop=1;jettySize=auto;html=1;entryX=0;entryY=0.5;entryDx=0;entryDy=0;" parent="1" source="Ns0Z2V4CjSXBU8SaPPjA-8" target="Ns0Z2V4CjSXBU8SaPPjA-14" edge="1">
          <mxGeometry relative="1" as="geometry" />
        </mxCell>
        <mxCell id="Ns0Z2V4CjSXBU8SaPPjA-17" value="" style="edgeStyle=orthogonalEdgeStyle;rounded=0;orthogonalLoop=1;jettySize=auto;html=1;entryX=0;entryY=0.5;entryDx=0;entryDy=0;" parent="1" source="Ns0Z2V4CjSXBU8SaPPjA-8" target="Ns0Z2V4CjSXBU8SaPPjA-16" edge="1">
          <mxGeometry relative="1" as="geometry" />
        </mxCell>
        <mxCell id="Ns0Z2V4CjSXBU8SaPPjA-8" value="Overview" style="rounded=1;fillColor=#f8cecc;strokeColor=#b85450;fontStyle=1;fontFamily=Tahoma;fontSize=14;whiteSpace=wrap;" parent="1" vertex="1">
          <mxGeometry x="1540" y="190" width="190" height="80" as="geometry" />
        </mxCell>
        <mxCell id="Ns0Z2V4CjSXBU8SaPPjA-10" value="Active Users" style="rounded=1;fillColor=#d5e8d4;strokeColor=#82b366;fontStyle=1;fontFamily=Tahoma;fontSize=14;whiteSpace=wrap;" parent="1" vertex="1">
          <mxGeometry x="1681" y="290" width="190" height="80" as="geometry" />
        </mxCell>
        <mxCell id="Ns0Z2V4CjSXBU8SaPPjA-12" value="Up-Coming Events" style="rounded=1;fillColor=#d5e8d4;strokeColor=#82b366;fontStyle=1;fontFamily=Tahoma;fontSize=14;whiteSpace=wrap;" parent="1" vertex="1">
          <mxGeometry x="1680" y="390" width="190" height="80" as="geometry" />
        </mxCell>
        <mxCell id="Ns0Z2V4CjSXBU8SaPPjA-14" value="Newsletter Subscription" style="rounded=1;fillColor=#d5e8d4;strokeColor=#82b366;fontStyle=1;fontFamily=Tahoma;fontSize=14;whiteSpace=wrap;" parent="1" vertex="1">
          <mxGeometry x="1681" y="490" width="190" height="80" as="geometry" />
        </mxCell>
        <mxCell id="Ns0Z2V4CjSXBU8SaPPjA-16" value="Event Attendance" style="rounded=1;fillColor=#d5e8d4;strokeColor=#82b366;fontStyle=1;fontFamily=Tahoma;fontSize=14;whiteSpace=wrap;" parent="1" vertex="1">
          <mxGeometry x="1680" y="590" width="190" height="80" as="geometry" />
        </mxCell>
        <mxCell id="uuBvShlZYirNDqHIMP03-3" value="Donations" style="rounded=1;fillColor=#d5e8d4;strokeColor=#82b366;fontStyle=1;fontFamily=Tahoma;fontSize=14;whiteSpace=wrap;" parent="1" vertex="1">
          <mxGeometry x="2030" y="490" width="190" height="80" as="geometry" />
        </mxCell>
        <mxCell id="uuBvShlZYirNDqHIMP03-8" value="" style="edgeStyle=orthogonalEdgeStyle;rounded=0;orthogonalLoop=1;jettySize=auto;html=1;entryX=0;entryY=0.5;entryDx=0;entryDy=0;" parent="1" source="uuBvShlZYirNDqHIMP03-5" target="uuBvShlZYirNDqHIMP03-7" edge="1">
          <mxGeometry relative="1" as="geometry" />
        </mxCell>
        <mxCell id="uuBvShlZYirNDqHIMP03-10" value="" style="edgeStyle=orthogonalEdgeStyle;rounded=0;orthogonalLoop=1;jettySize=auto;html=1;entryX=0;entryY=0.5;entryDx=0;entryDy=0;" parent="1" source="uuBvShlZYirNDqHIMP03-5" target="uuBvShlZYirNDqHIMP03-9" edge="1">
          <mxGeometry relative="1" as="geometry" />
        </mxCell>
        <mxCell id="uuBvShlZYirNDqHIMP03-12" value="" style="edgeStyle=orthogonalEdgeStyle;rounded=0;orthogonalLoop=1;jettySize=auto;html=1;entryX=0;entryY=0.5;entryDx=0;entryDy=0;" parent="1" source="uuBvShlZYirNDqHIMP03-5" target="uuBvShlZYirNDqHIMP03-11" edge="1">
          <mxGeometry relative="1" as="geometry" />
        </mxCell>
        <mxCell id="uuBvShlZYirNDqHIMP03-5" value="Event Management" style="rounded=1;fillColor=#f8cecc;strokeColor=#b85450;fontStyle=1;fontFamily=Tahoma;fontSize=14;whiteSpace=wrap;" parent="1" vertex="1">
          <mxGeometry x="2240" y="190" width="190" height="80" as="geometry" />
        </mxCell>
        <mxCell id="uuBvShlZYirNDqHIMP03-7" value="Events" style="rounded=1;fillColor=#d5e8d4;strokeColor=#82b366;fontStyle=1;fontFamily=Tahoma;fontSize=14;whiteSpace=wrap;" parent="1" vertex="1">
          <mxGeometry x="2380" y="290" width="190" height="80" as="geometry" />
        </mxCell>
        <mxCell id="uuBvShlZYirNDqHIMP03-9" value="Reservations" style="rounded=1;fillColor=#d5e8d4;strokeColor=#82b366;fontStyle=1;fontFamily=Tahoma;fontSize=14;whiteSpace=wrap;" parent="1" vertex="1">
          <mxGeometry x="2380" y="390" width="190" height="80" as="geometry" />
        </mxCell>
        <mxCell id="uuBvShlZYirNDqHIMP03-11" value="Calendar View" style="rounded=1;fillColor=#d5e8d4;strokeColor=#82b366;fontStyle=1;fontFamily=Tahoma;fontSize=14;whiteSpace=wrap;" parent="1" vertex="1">
          <mxGeometry x="2380" y="490" width="190" height="80" as="geometry" />
        </mxCell>
        <mxCell id="WJD5iPI7XFXcdI3w-YtY-4" value="" style="edgeStyle=orthogonalEdgeStyle;rounded=0;orthogonalLoop=1;jettySize=auto;html=1;entryX=0;entryY=0.5;entryDx=0;entryDy=0;" parent="1" source="WJD5iPI7XFXcdI3w-YtY-1" target="WJD5iPI7XFXcdI3w-YtY-3" edge="1">
          <mxGeometry relative="1" as="geometry" />
        </mxCell>
        <mxCell id="WJD5iPI7XFXcdI3w-YtY-6" value="" style="edgeStyle=orthogonalEdgeStyle;rounded=0;orthogonalLoop=1;jettySize=auto;html=1;entryX=0;entryY=0.5;entryDx=0;entryDy=0;" parent="1" source="WJD5iPI7XFXcdI3w-YtY-1" target="WJD5iPI7XFXcdI3w-YtY-5" edge="1">
          <mxGeometry relative="1" as="geometry" />
        </mxCell>
        <mxCell id="WJD5iPI7XFXcdI3w-YtY-1" value="Form Management" style="rounded=1;fillColor=#f8cecc;strokeColor=#b85450;fontStyle=1;fontFamily=Tahoma;fontSize=14;whiteSpace=wrap;" parent="1" vertex="1">
          <mxGeometry x="2590" y="190" width="190" height="80" as="geometry" />
        </mxCell>
        <mxCell id="WJD5iPI7XFXcdI3w-YtY-3" value="Contact Us" style="rounded=1;fillColor=#d5e8d4;strokeColor=#82b366;fontStyle=1;fontFamily=Tahoma;fontSize=14;whiteSpace=wrap;" parent="1" vertex="1">
          <mxGeometry x="2730" y="290" width="190" height="80" as="geometry" />
        </mxCell>
        <mxCell id="WJD5iPI7XFXcdI3w-YtY-5" value="Get Involved&#xa;[Form]" style="rounded=1;fillColor=#d5e8d4;strokeColor=#82b366;fontStyle=1;fontFamily=Tahoma;fontSize=14;whiteSpace=wrap;" parent="1" vertex="1">
          <mxGeometry x="2730" y="390" width="190" height="80" as="geometry" />
        </mxCell>
        <mxCell id="WJD5iPI7XFXcdI3w-YtY-10" value="" style="edgeStyle=orthogonalEdgeStyle;rounded=0;orthogonalLoop=1;jettySize=auto;html=1;entryX=0;entryY=0.5;entryDx=0;entryDy=0;" parent="1" source="WJD5iPI7XFXcdI3w-YtY-7" target="WJD5iPI7XFXcdI3w-YtY-9" edge="1">
          <mxGeometry relative="1" as="geometry" />
        </mxCell>
        <mxCell id="WJD5iPI7XFXcdI3w-YtY-12" value="" style="edgeStyle=orthogonalEdgeStyle;rounded=0;orthogonalLoop=1;jettySize=auto;html=1;entryX=0;entryY=0.5;entryDx=0;entryDy=0;" parent="1" source="WJD5iPI7XFXcdI3w-YtY-7" target="WJD5iPI7XFXcdI3w-YtY-11" edge="1">
          <mxGeometry relative="1" as="geometry" />
        </mxCell>
        <mxCell id="5avAkMt3DYsckHZ6njMB-2" value="" style="edgeStyle=orthogonalEdgeStyle;rounded=0;orthogonalLoop=1;jettySize=auto;html=1;entryX=0;entryY=0.5;entryDx=0;entryDy=0;" parent="1" source="WJD5iPI7XFXcdI3w-YtY-7" target="5avAkMt3DYsckHZ6njMB-1" edge="1">
          <mxGeometry relative="1" as="geometry" />
        </mxCell>
        <mxCell id="WJD5iPI7XFXcdI3w-YtY-7" value="Page Management" style="rounded=1;fillColor=#f8cecc;strokeColor=#b85450;fontStyle=1;fontFamily=Tahoma;fontSize=14;whiteSpace=wrap;" parent="1" vertex="1">
          <mxGeometry x="2940" y="190" width="190" height="80" as="geometry" />
        </mxCell>
        <mxCell id="SjtHZpkYU5AelsoIKo5H-2" value="" style="edgeStyle=orthogonalEdgeStyle;rounded=0;orthogonalLoop=1;jettySize=auto;html=1;entryX=0;entryY=0.5;entryDx=0;entryDy=0;" parent="1" source="WJD5iPI7XFXcdI3w-YtY-9" target="SjtHZpkYU5AelsoIKo5H-1" edge="1">
          <mxGeometry relative="1" as="geometry" />
        </mxCell>
        <mxCell id="tMCKW0vk-i2qSgwR7SiQ-2" value="" style="edgeStyle=orthogonalEdgeStyle;rounded=0;orthogonalLoop=1;jettySize=auto;html=1;entryX=0;entryY=0.5;entryDx=0;entryDy=0;" edge="1" parent="1" source="WJD5iPI7XFXcdI3w-YtY-9" target="tMCKW0vk-i2qSgwR7SiQ-1">
          <mxGeometry relative="1" as="geometry" />
        </mxCell>
        <mxCell id="WJD5iPI7XFXcdI3w-YtY-9" value="Home" style="rounded=1;fillColor=#d5e8d4;strokeColor=#82b366;fontStyle=1;fontFamily=Tahoma;fontSize=14;whiteSpace=wrap;" parent="1" vertex="1">
          <mxGeometry x="3080" y="290" width="190" height="80" as="geometry" />
        </mxCell>
        <mxCell id="npJakqdtst7BUwAaIK4v-2" value="" style="edgeStyle=orthogonalEdgeStyle;rounded=0;orthogonalLoop=1;jettySize=auto;html=1;entryX=0;entryY=0.5;entryDx=0;entryDy=0;" parent="1" source="WJD5iPI7XFXcdI3w-YtY-11" target="npJakqdtst7BUwAaIK4v-1" edge="1">
          <mxGeometry relative="1" as="geometry" />
        </mxCell>
        <mxCell id="FrH_F_D7c6dZPW53-Wk3-2" value="" style="edgeStyle=orthogonalEdgeStyle;rounded=0;orthogonalLoop=1;jettySize=auto;html=1;entryX=0;entryY=0.5;entryDx=0;entryDy=0;" parent="1" source="WJD5iPI7XFXcdI3w-YtY-11" target="FrH_F_D7c6dZPW53-Wk3-1" edge="1">
          <mxGeometry relative="1" as="geometry" />
        </mxCell>
        <mxCell id="JpiK7rRi8tAwoGMcj-OD-2" value="" style="edgeStyle=orthogonalEdgeStyle;rounded=0;orthogonalLoop=1;jettySize=auto;html=1;entryX=0;entryY=0.5;entryDx=0;entryDy=0;" parent="1" source="WJD5iPI7XFXcdI3w-YtY-11" target="JpiK7rRi8tAwoGMcj-OD-1" edge="1">
          <mxGeometry relative="1" as="geometry" />
        </mxCell>
        <mxCell id="JpiK7rRi8tAwoGMcj-OD-4" value="" style="edgeStyle=orthogonalEdgeStyle;rounded=0;orthogonalLoop=1;jettySize=auto;html=1;entryX=0;entryY=0.5;entryDx=0;entryDy=0;" parent="1" source="WJD5iPI7XFXcdI3w-YtY-11" target="JpiK7rRi8tAwoGMcj-OD-3" edge="1">
          <mxGeometry relative="1" as="geometry" />
        </mxCell>
        <mxCell id="MVdzAiloLYO8ivWiX9sm-2" value="" style="edgeStyle=orthogonalEdgeStyle;rounded=0;orthogonalLoop=1;jettySize=auto;html=1;entryX=0;entryY=0.5;entryDx=0;entryDy=0;" parent="1" source="WJD5iPI7XFXcdI3w-YtY-11" target="MVdzAiloLYO8ivWiX9sm-1" edge="1">
          <mxGeometry relative="1" as="geometry" />
        </mxCell>
        <mxCell id="WJD5iPI7XFXcdI3w-YtY-11" value="About Us" style="rounded=1;fillColor=#d5e8d4;strokeColor=#82b366;fontStyle=1;fontFamily=Tahoma;fontSize=14;whiteSpace=wrap;" parent="1" vertex="1">
          <mxGeometry x="3080" y="590" width="190" height="80" as="geometry" />
        </mxCell>
        <mxCell id="BvP5VskOBIv1aqZnhRZ--2" value="" style="edgeStyle=orthogonalEdgeStyle;rounded=0;orthogonalLoop=1;jettySize=auto;html=1;entryX=0;entryY=0.5;entryDx=0;entryDy=0;" parent="1" source="5avAkMt3DYsckHZ6njMB-1" target="BvP5VskOBIv1aqZnhRZ--1" edge="1">
          <mxGeometry relative="1" as="geometry" />
        </mxCell>
        <mxCell id="BvP5VskOBIv1aqZnhRZ--4" value="" style="edgeStyle=orthogonalEdgeStyle;rounded=0;orthogonalLoop=1;jettySize=auto;html=1;entryX=0;entryY=0.5;entryDx=0;entryDy=0;" parent="1" source="5avAkMt3DYsckHZ6njMB-1" target="BvP5VskOBIv1aqZnhRZ--3" edge="1">
          <mxGeometry relative="1" as="geometry" />
        </mxCell>
        <mxCell id="91RoxdVkmVGKsRxvf_vM-2" value="" style="edgeStyle=orthogonalEdgeStyle;rounded=0;orthogonalLoop=1;jettySize=auto;html=1;entryX=0;entryY=0.5;entryDx=0;entryDy=0;" parent="1" source="5avAkMt3DYsckHZ6njMB-1" target="91RoxdVkmVGKsRxvf_vM-1" edge="1">
          <mxGeometry relative="1" as="geometry" />
        </mxCell>
        <mxCell id="5avAkMt3DYsckHZ6njMB-1" value="Get Involved" style="rounded=1;fillColor=#d5e8d4;strokeColor=#82b366;fontStyle=1;fontFamily=Tahoma;fontSize=14;whiteSpace=wrap;" parent="1" vertex="1">
          <mxGeometry x="3080" y="1190" width="190" height="80" as="geometry" />
        </mxCell>
        <mxCell id="SjtHZpkYU5AelsoIKo5H-1" value="Header" style="rounded=1;fillColor=#f5f5f5;strokeColor=#666666;fontStyle=1;fontFamily=Tahoma;fontSize=14;whiteSpace=wrap;fontColor=#333333;" parent="1" vertex="1">
          <mxGeometry x="3220" y="390" width="190" height="80" as="geometry" />
        </mxCell>
        <mxCell id="npJakqdtst7BUwAaIK4v-1" value="Deascription" style="rounded=1;fillColor=#f5f5f5;strokeColor=#666666;fontStyle=1;fontFamily=Tahoma;fontSize=14;whiteSpace=wrap;fontColor=#333333;" parent="1" vertex="1">
          <mxGeometry x="3220" y="690" width="190" height="80" as="geometry" />
        </mxCell>
        <mxCell id="FrH_F_D7c6dZPW53-Wk3-1" value="Services&#xa;[Listing]" style="rounded=1;fillColor=#f5f5f5;strokeColor=#666666;fontStyle=1;fontFamily=Tahoma;fontSize=14;whiteSpace=wrap;fontColor=#333333;" parent="1" vertex="1">
          <mxGeometry x="3220" y="790" width="190" height="80" as="geometry" />
        </mxCell>
        <mxCell id="JpiK7rRi8tAwoGMcj-OD-1" value="Our Mission&#xa;[Image - Descirption]" style="rounded=1;fillColor=#f5f5f5;strokeColor=#666666;fontStyle=1;fontFamily=Tahoma;fontSize=14;whiteSpace=wrap;fontColor=#333333;" parent="1" vertex="1">
          <mxGeometry x="3220" y="890" width="190" height="80" as="geometry" />
        </mxCell>
        <mxCell id="JpiK7rRi8tAwoGMcj-OD-3" value="Our Vision&#xa;[Image - Description]" style="rounded=1;fillColor=#f5f5f5;strokeColor=#666666;fontStyle=1;fontFamily=Tahoma;fontSize=14;whiteSpace=wrap;fontColor=#333333;" parent="1" vertex="1">
          <mxGeometry x="3220" y="990" width="190" height="80" as="geometry" />
        </mxCell>
        <mxCell id="MVdzAiloLYO8ivWiX9sm-1" value="Our Goals&#xa;[Image - Description]" style="rounded=1;fillColor=#f5f5f5;strokeColor=#666666;fontStyle=1;fontFamily=Tahoma;fontSize=14;whiteSpace=wrap;fontColor=#333333;" parent="1" vertex="1">
          <mxGeometry x="3220" y="1090" width="190" height="80" as="geometry" />
        </mxCell>
        <mxCell id="BvP5VskOBIv1aqZnhRZ--1" value="Description" style="rounded=1;fillColor=#f5f5f5;strokeColor=#666666;fontStyle=1;fontFamily=Tahoma;fontSize=14;whiteSpace=wrap;fontColor=#333333;" parent="1" vertex="1">
          <mxGeometry x="3220" y="1290" width="190" height="80" as="geometry" />
        </mxCell>
        <mxCell id="BvP5VskOBIv1aqZnhRZ--3" value="What We Do&#xa;[Image - Description]" style="rounded=1;fillColor=#f5f5f5;strokeColor=#666666;fontStyle=1;fontFamily=Tahoma;fontSize=14;whiteSpace=wrap;fontColor=#333333;" parent="1" vertex="1">
          <mxGeometry x="3220" y="1390" width="190" height="80" as="geometry" />
        </mxCell>
        <mxCell id="91RoxdVkmVGKsRxvf_vM-4" value="" style="edgeStyle=orthogonalEdgeStyle;rounded=0;orthogonalLoop=1;jettySize=auto;html=1;entryX=0;entryY=0.5;entryDx=0;entryDy=0;" parent="1" source="91RoxdVkmVGKsRxvf_vM-1" target="91RoxdVkmVGKsRxvf_vM-3" edge="1">
          <mxGeometry relative="1" as="geometry" />
        </mxCell>
        <mxCell id="91RoxdVkmVGKsRxvf_vM-6" value="" style="edgeStyle=orthogonalEdgeStyle;rounded=0;orthogonalLoop=1;jettySize=auto;html=1;entryX=0;entryY=0.5;entryDx=0;entryDy=0;" parent="1" source="91RoxdVkmVGKsRxvf_vM-1" target="91RoxdVkmVGKsRxvf_vM-5" edge="1">
          <mxGeometry relative="1" as="geometry" />
        </mxCell>
        <mxCell id="91RoxdVkmVGKsRxvf_vM-8" value="" style="edgeStyle=orthogonalEdgeStyle;rounded=0;orthogonalLoop=1;jettySize=auto;html=1;entryX=0;entryY=0.5;entryDx=0;entryDy=0;" parent="1" source="91RoxdVkmVGKsRxvf_vM-1" target="91RoxdVkmVGKsRxvf_vM-7" edge="1">
          <mxGeometry relative="1" as="geometry" />
        </mxCell>
        <mxCell id="91RoxdVkmVGKsRxvf_vM-1" value="Featured Partners" style="rounded=1;fillColor=#f5f5f5;strokeColor=#666666;fontStyle=1;fontFamily=Tahoma;fontSize=14;whiteSpace=wrap;fontColor=#333333;" parent="1" vertex="1">
          <mxGeometry x="3220" y="1490" width="190" height="80" as="geometry" />
        </mxCell>
        <mxCell id="91RoxdVkmVGKsRxvf_vM-3" value="Image" style="rounded=1;fillColor=#e1d5e7;strokeColor=#9673a6;fontStyle=1;fontFamily=Tahoma;fontSize=14;whiteSpace=wrap;" parent="1" vertex="1">
          <mxGeometry x="3360" y="1590" width="190" height="80" as="geometry" />
        </mxCell>
        <mxCell id="91RoxdVkmVGKsRxvf_vM-5" value="Name" style="rounded=1;fillColor=#e1d5e7;strokeColor=#9673a6;fontStyle=1;fontFamily=Tahoma;fontSize=14;whiteSpace=wrap;" parent="1" vertex="1">
          <mxGeometry x="3360" y="1690" width="190" height="80" as="geometry" />
        </mxCell>
        <mxCell id="91RoxdVkmVGKsRxvf_vM-7" value="Position&#xa;[Small Description]" style="rounded=1;fillColor=#e1d5e7;strokeColor=#9673a6;fontStyle=1;fontFamily=Tahoma;fontSize=14;whiteSpace=wrap;" parent="1" vertex="1">
          <mxGeometry x="3360" y="1790" width="190" height="80" as="geometry" />
        </mxCell>
        <mxCell id="tMCKW0vk-i2qSgwR7SiQ-1" value="Board Members" style="rounded=1;fillColor=#f5f5f5;strokeColor=#666666;fontStyle=1;fontFamily=Tahoma;fontSize=14;whiteSpace=wrap;fontColor=#333333;" vertex="1" parent="1">
          <mxGeometry x="3221" y="490" width="190" height="80" as="geometry" />
        </mxCell>
      </root>
    </mxGraphModel>
  </diagram>
</mxfile>
